<mxfile host="app.diagrams.net" modified="2020-05-30T00:43:29.676Z" agent="5.0 (Windows NT 6.1; Win64; x64) AppleWebKit/537.36 (KHTML, like Gecko) Chrome/83.0.4103.61 Safari/537.36" etag="PhDKd6V2hGVz2P1KS0ju" version="13.1.8" type="github">
  <diagram id="WXBOyLPeUHVx0s4qX4TD" name="Page-1">
    <mxGraphModel dx="188" dy="348" grid="1" gridSize="10" guides="1" tooltips="1" connect="1" arrows="1" fold="1" page="1" pageScale="1" pageWidth="850" pageHeight="1100" math="0" shadow="0">
      <root>
        <mxCell id="0" />
        <mxCell id="1" parent="0" />
        <mxCell id="Xo0ayffPaoZ7dbwjomq_-1" style="edgeStyle=orthogonalEdgeStyle;rounded=0;orthogonalLoop=1;jettySize=auto;html=1;exitX=1;exitY=0.5;exitDx=0;exitDy=0;" edge="1" parent="1" source="2prXesDoy6PK8FslxBdL-1">
          <mxGeometry relative="1" as="geometry">
            <mxPoint x="460" y="170" as="targetPoint" />
          </mxGeometry>
        </mxCell>
        <mxCell id="2prXesDoy6PK8FslxBdL-1" value="" style="shape=parallelogram;perimeter=parallelogramPerimeter;whiteSpace=wrap;html=1;size=0.08888888888888889;" parent="1" vertex="1">
          <mxGeometry x="70" y="30" width="300" height="90" as="geometry" />
        </mxCell>
        <mxCell id="Xo0ayffPaoZ7dbwjomq_-2" value="" style="ellipse;whiteSpace=wrap;html=1;" vertex="1" parent="1">
          <mxGeometry x="30" y="210" width="120" height="80" as="geometry" />
        </mxCell>
      </root>
    </mxGraphModel>
  </diagram>
</mxfile>
